<svg width="20" height="20" viewBox="0 0 20 20" fill="none" xmlns="http://www.w3.org/2000/svg">
<path fill-rule="evenodd" clip-rule="evenodd" d="M10 19.6C12.5461 19.6 14.9879 18.5886 16.7882 16.7882C18.5886 14.9879 19.6 12.5461 19.6 10C19.6 7.45395 18.5886 5.01215 16.7882 3.2118C14.9879 1.41145 12.5461 0.400024 10 0.400024C7.45395 0.400024 5.01215 1.41145 3.2118 3.2118C1.41145 5.01215 0.400024 7.45395 0.400024 10C0.400024 12.5461 1.41145 14.9879 3.2118 16.7882C5.01215 18.5886 7.45395 19.6 10 19.6ZM6.40002 8.80002H4.00002V11.2H6.40002V8.80002ZM16 8.80002H13.6V11.2H16V8.80002ZM8.80002 8.80002H11.2V11.2H8.80002V8.80002Z" fill="#808080"/>
</svg>
